<svg width="1822" height="492" viewBox="0 0 1822 492" fill="none" xmlns="http://www.w3.org/2000/svg">
<path d="M371.262 377.764C370.343 381.774 368.645 385.473 368.703 389.663C368.957 394.533 365.258 398.224 364.872 402.806C364.675 405.032 364.044 406.996 362.657 408.83C360.992 411.227 361.46 414.82 359.032 416.833C357.153 419.149 357.49 422.505 355.061 424.682C341.56 447.645 321.512 466.975 297.149 478.244C270.933 492.377 240.287 489.611 211.158 491.068C147.34 490.045 83.0046 493.098 19.4323 489.963C15.4703 488.163 10.565 488.335 8.17793 484.513C5.36434 484.063 5.65965 480.634 4.17492 478.907C0.524642 475.085 2.01757 469.545 1.68945 464.815V29.8324C0.311367 19.259 3.83861 9.8068 13.477 4.48736C41.7933 0.395494 71.3565 4.00452 100.075 2.83425C119.188 0.182716 139.44 0.0681441 158.717 1.86038C190.856 5.81313 226.137 -3.56544 255.602 13.1703C263.37 16.8203 270.514 20.8467 277.544 26.0515C279.373 27.1727 280.087 29.3741 282.441 30.037C284.057 30.4953 284.582 33.0568 286.6 33.5315C287.248 35.7656 289.66 36.404 290.808 38.1798C291.104 38.6299 291.251 39.3828 291.637 39.5138C293.884 40.2912 294.434 42.9264 296.28 43.843C313.899 62.0518 323.677 85.9729 327.697 110.991C330.822 144.879 323.997 179.513 301.464 205.447C294.319 212.87 286.945 219.859 278.225 225.653C274.796 228.836 271.868 231.431 267.848 233.968C261.409 238.28 256.496 243.281 250.286 247.52C244.618 250.892 240.59 255.483 234.938 258.985C230.616 261.768 226.973 265.205 222.823 268.135C221.002 270.05 217.885 270.246 216.482 272.767C213.914 274.15 211.47 276.433 208.706 278.127C202.668 282.866 196.615 286.466 190.667 291.262C179.93 298.39 169.611 306.787 159.062 314.013C156.724 314.357 155.961 317.098 153.738 317.581C151.425 318.097 150.547 320.568 148.48 321.321C144.485 324.316 140.613 327.213 136.02 329.824C130.909 333.539 124.396 339.792 117.563 340.119C108.795 340.651 108.007 338.99 102.224 331.943C96.7199 331.019 100.378 157.253 99.394 150.927C98.0487 136.778 106.629 120.467 122.903 126.72C124.889 129.551 128.99 129.077 130.967 131.933C132.033 133.479 134.822 132.849 135.355 135.198C136.775 135.976 138.243 136.671 139.596 137.555C144.879 141.148 149.374 145.919 155.067 148.464C160.087 152.065 164.508 156.729 170.045 159.176C171.596 159.52 171.834 161.1 172.851 161.893C174.524 162.663 176.066 164.054 177.084 165.355C180.758 166.116 182.547 169.856 186.057 170.797C186.804 173.212 189.552 173.122 190.905 174.578C194.605 176.992 197.476 180.2 201.438 182.034C202.759 185.004 206.524 185.053 208.164 187.639C212.971 189.595 215.941 193.974 220.321 196.535C220.715 196.707 221.199 197.534 221.076 197.836C220.698 202.149 216.58 203.32 213.873 205.971C212.348 207.084 210.42 207.771 209.477 209.556C208.55 211.331 206.081 211.053 205.228 213.132C204.539 214.81 201.741 214.449 201.02 216.594C198.993 218.549 194.843 214.261 192.431 213.697C185.024 208.107 177.461 202.46 169.84 197.73C164.549 194.489 160.186 190.046 154.444 187.648C151.704 184.382 147.529 182.647 143.968 180.389C142.664 177.353 139.022 177.312 137.053 175.02C135.585 173.31 133.28 172.966 131.09 172.671C127.62 172.778 128.687 176.886 128.432 179.227C128.432 214.654 128.432 250.081 128.432 285.517C128.514 288.34 127.792 293.66 132.238 292.686C139.703 290.746 144.748 284.33 151.581 280.427C160.481 274.33 168.421 267.766 177.518 261.948C182.85 257.488 189.585 254.01 194.638 249.001C196.623 247.34 199.305 246.579 201.102 244.443C202.635 243.461 204.481 243.223 205.58 241.268C206.409 239.803 209.108 239.934 209.772 237.822C215.448 234.18 221.043 230.612 225.718 226.128C228.909 224.54 231.173 221.79 234.504 220.383C235.045 217.633 238.81 218.058 239.434 215.382C243.814 213.435 246.652 209.04 250.631 206.372C252.443 205.218 253.502 203.189 255.839 202.591C257.619 202.141 257.923 199.743 259.769 198.786C264.928 193.908 270.26 188.09 273.787 181.6C276.634 180.405 275.69 176.534 278.315 175.192C280.136 169.529 283.942 164.684 284.837 158.661C289.176 152.613 286.526 144.92 289.373 138.259C290.357 135.468 290.497 132.285 289.455 129.404C287.06 120.32 287.765 111.146 284.008 102.389C283.877 97.5365 280.423 94.0911 279.48 89.4755C278.988 87.6833 279.013 85.6537 277.003 84.6226C275.617 82.6994 276.059 79.8269 273.722 78.2638C266.634 66.4547 257.759 54.7192 245.2 48.0085C213.832 26.9436 132.427 36.2075 91.7899 34.0389C86.8272 33.6788 82.1925 35.8147 77.2216 35.6019C68.9203 37.2223 42.3429 31.6083 39.8 39.5956C39.7836 178.539 38.8977 317.597 40.1036 456.508C108.753 459.266 182.071 461.287 251.328 454.626C259.252 452.776 266.561 449.167 274.296 446.729C276.117 446.434 276.412 444.282 278.159 443.971C279.497 443.733 280.891 443.463 282.08 442.858C284.779 440.386 288.101 438.201 291.177 436.392C293.893 435.394 294.655 432.17 297.518 431.63C298.462 428.986 301.841 428.487 302.711 425.778C305.352 425.091 305.655 422.136 307.682 420.712C309.101 419.706 309.823 417.684 310.766 416.064C313.005 412.529 316.5 409.468 317.271 405.18C317.459 403.338 319.576 402.978 319.978 401.301C320.544 397.061 324.227 394.492 324.227 390.171C325.712 384.319 328.476 379.065 328.533 372.911C332.061 360.938 330.19 349.457 327.853 337.459C326.852 331.747 324.875 325.814 322.209 320.854C320.412 319.357 320.585 316.943 319.609 315.028C319.018 313.906 317.377 313.645 317.148 312.049C315.581 306.885 311.045 303.374 308.026 299.118C304.064 293.922 299.864 289.249 294.737 285.141C290.267 283.193 288.233 277.923 283.458 276.359C282.343 274.232 280.112 273.757 278.209 272.75C276.363 271.777 275.444 269.387 272.983 269.231C271.236 266.334 272.426 262.463 275.674 261.203C275.567 258.56 279.3 258.83 279.39 256.334C281.285 254.861 282.917 252.954 284.927 251.792C289.758 248.216 296.837 245.384 302.054 250.016C304.31 251.473 307.501 251.031 309.15 253.65C310.405 255.524 313.21 254.967 314.515 257.095C315.138 258.11 316.828 258.421 317.919 259.214C322.529 262.864 327.204 266.375 331.15 270.508C334.923 274.207 337.975 277.742 341.838 281.155C343.266 281.982 342.847 284.306 344.75 284.83C346.621 285.337 345.899 287.809 347.556 288.553C349.237 289.298 349.344 291.18 350.246 292.49C354.176 297.776 356.431 303.89 360.205 309.037C368.539 330.577 375.011 354.064 371.262 377.756V377.764Z" fill="url(#paint0_linear_10_7837)" stroke="url(#paint1_linear_10_7837)"/>
<path d="M1695.84 362.166C1685.18 362.15 1674.52 362.33 1663.87 362.035C1661.07 361.814 1661.7 358.802 1661.53 356.838C1661.53 325.969 1657.09 295.698 1657.52 264.779C1653.72 230.309 1654.37 195.234 1651.06 160.707C1649.17 126.973 1650.49 91.3741 1647.78 58.68C1648.9 62.6655 1642.83 64.9406 1643.32 69.4908C1644.23 75.4813 1639.7 80.0887 1639.36 85.9401C1635.64 95.3432 1633.17 107.692 1629.81 115.876C1627.49 119.289 1629.27 124.166 1626.29 127.415C1624.51 133.529 1622.38 139.797 1620.64 146.033C1617.98 151.165 1617.69 156.975 1614.84 161.934C1613.54 167.147 1611.7 172.049 1610.08 177.279C1609.43 182.287 1605.38 185.774 1605.66 191.036C1603.31 194.227 1602.11 197.648 1601.92 201.576C1600.19 205.063 1598.74 208.32 1598.38 212.24C1595.99 216.585 1595.33 221.348 1593.39 225.833C1591.2 228.452 1591.37 232.053 1590.44 235.056C1587.97 238.51 1587.52 242.561 1586.78 246.546C1585.46 248.608 1583.93 250.54 1583.94 253.134C1583.66 255.294 1583.42 257.324 1581.53 258.969C1579.49 262.21 1580.66 267.284 1577.52 270.287C1575.55 273.798 1576.93 278.454 1573.72 281.646C1572.12 284.51 1573.31 288.848 1570.61 291.516C1569.79 292.424 1569.57 293.963 1569.35 295.264C1567.27 303.603 1562.99 311.427 1561.3 319.856C1556.48 326.779 1550.32 361.945 1543.39 361.749C1534.83 360.136 1513.95 366.168 1510.4 356.986C1509.77 351.445 1506.58 346.87 1505.91 341.371C1505.66 338.245 1503.2 336.207 1502.67 333.146C1501.92 330.061 1502.5 326.616 1499.78 324.054C1498 320.568 1499.57 315.756 1496.26 312.654C1494.71 307.859 1494.19 302.531 1491.44 298.087C1491.47 292.964 1487.61 289.142 1487.48 284.134C1483.99 271.285 1478.54 258.838 1475.27 245.679C1471.62 241.742 1474.17 235.891 1470.82 232.077C1467.61 223.795 1466.21 214.261 1461.98 206.167C1460.5 197.255 1456.51 189.203 1454.45 180.7C1454.49 176.117 1450.62 172.917 1450.44 168.424C1450.62 163.849 1447.06 160.739 1446.73 156.238C1446.74 153.079 1445.33 150.649 1443.79 147.965C1442.65 144.928 1443.63 141.434 1441.54 138.545C1438.47 134.707 1440.51 129.257 1437.79 125.378C1435.02 118.855 1433.24 111.482 1431.81 104.419C1412.14 19.0134 1418.65 127.203 1416.22 149.651C1414.94 170.945 1412.87 192.304 1413.14 213.909C1409.75 248.518 1409.29 283.365 1405.98 317.982C1404.38 327.377 1408.78 358.36 1400.97 362.019C1388.44 362.305 1375.81 362.297 1363.27 362.01C1359.07 359.195 1362.27 345.258 1361.81 340.111C1363.77 321.435 1365.32 303.104 1365.53 284.158C1368.06 257.954 1369.41 238.37 1370.33 211.839C1374.92 193.311 1371.22 173.662 1374.42 154.994C1378.13 135.043 1374.09 114.002 1379.22 94.1402C1380.27 74.0491 1380.43 53.8353 1382.91 33.9406C1385.13 28.1056 1380.41 6.48412 1388.11 7.26976C1399.19 8.55461 1437.05 3.628 1442.67 10.0359C1442.44 14.7824 1445.69 17.9577 1446.49 22.2624C1446.34 25.765 1448.58 28.3429 1449.68 31.3791C1449.98 36.7394 1453.53 40.8968 1454.29 46.028C1454.6 48.1803 1454.97 50.259 1456.61 51.9775C1458.4 55.5293 1457.56 60.1367 1460.5 63.3448C1465.91 84.1069 1474.25 103.421 1480.19 123.97C1482.09 128.987 1483.88 134.101 1485.26 139.257C1488.5 142.645 1486.33 147.932 1489.6 151.304C1492.18 158.775 1493.98 167.049 1497.37 174.202C1499.27 177.753 1498.29 182.287 1501.33 185.561C1503.04 189.055 1501.3 193.965 1504.64 197.043C1507.34 206.249 1509.75 215.808 1513.19 224.835C1513.91 227.928 1513.19 231.463 1516.07 233.869C1516.89 237.208 1516.83 241.096 1518.07 244.205C1521.37 248.69 1519.81 254.337 1522.24 258.936C1525.82 263.405 1523.74 269.51 1526.96 274.281C1529.05 279.715 1527.86 286.409 1532 291.196C1537.1 294.478 1534.75 282.604 1537.23 280.255C1540.43 275.23 1538.33 268.757 1542.23 264.1C1542.59 261.956 1543.05 259.828 1543.28 257.676C1543.09 253.6 1546.96 251.104 1546.66 247.004C1547.9 238.591 1552.23 230.727 1554.15 222.306C1554.37 217.51 1558.23 213.999 1557.97 209.163C1557.6 205.521 1561.04 203.573 1561.33 200.267C1561.49 195.25 1564.59 191.273 1565.3 186.281C1566.79 181.354 1569.02 176.6 1570.11 171.698C1573.49 168.923 1572.29 164.774 1573.54 161.19C1575.68 158.587 1576.33 155.633 1576.72 152.228C1580.66 144.904 1582.42 136.393 1585.28 128.667C1588.5 125.165 1586.55 120.107 1589.64 116.605C1591.81 110.655 1594.34 104.517 1595.66 98.183C1597.76 94.6558 1599.22 91.0795 1599.6 86.8239C1603 84.4506 1601.75 80.3833 1602.92 77.1835C1607.22 70.08 1608.18 61.2088 1611.83 53.8025C1614.53 50.4308 1612.62 45.5697 1615.79 42.4517C1617.07 40.1193 1616.68 36.9931 1617.96 34.6607C1623.07 27.9746 1623.31 5.944 1633.56 7.15519C1649.95 7.33523 1666.37 6.75419 1682.73 7.41707C1685.7 8.21908 1684.03 12.5155 1684.56 14.7415C1684.41 18.6124 1687.31 21.8205 1686.72 25.8059C1689.47 111.449 1697.54 196.47 1700.43 282.129C1704.84 300.166 1700.82 319.087 1704.09 337.312C1703.64 342.271 1704.93 346.961 1705.67 351.805C1705.63 362.608 1707.2 362.117 1695.84 362.166V362.166Z" fill="url(#paint2_linear_10_7837)" stroke="url(#paint3_linear_10_7837)"/>
<path d="M990.958 17.3085V352.465C990.506 355.567 992.656 361.983 988.177 362.122C975.339 362.237 962.485 362.122 949.648 362.171C947.901 362.171 946.482 361.746 945.702 359.954C945.177 358.734 943.266 358.669 943.077 357.065C942.946 355.935 942.2 355.158 941.617 354.241C938.574 348.807 935.49 343.357 931.979 338.578C931.913 335.353 928.083 333.978 928.033 330.762C927.869 328.814 925.745 328.651 925.105 327.071C923.538 322.603 920.675 318.552 917.829 314.599C916.303 313.372 917.156 310.876 915.188 309.722C913.686 308.838 913.514 306.997 913.038 305.45C912.595 303.502 910.479 302.839 909.872 300.957C909.019 298.985 908.461 296.947 906.55 295.507C905.057 294.377 905.803 291.767 903.917 290.637C901.694 289.14 902.686 286.022 900.308 284.557C896.214 276.823 890.546 269.106 886.806 261.012C886.1 258.974 883.221 258.336 883.41 255.734C880.53 250.84 876.732 246.502 875.272 241.117C872.327 240.209 873.156 236.821 871.368 235.217C869.169 231.894 866.594 228.613 864.928 225.012C863.6 221.657 860.942 219.512 860.13 215.871C857.005 212.605 855.134 207.466 852.567 203.734C849.638 201.205 849.942 197.531 847.046 195.19C840.468 183.013 832.962 171.547 826.654 159.337C822.963 155.115 821.199 149.034 817.417 144.517C815.859 139.009 812.061 134.631 809.526 129.647C809.141 127.805 808.452 126.013 806.754 124.835C805.064 123.067 805.983 119.859 803.71 118.378C800.101 111.847 796.582 105.3 793.481 98.4912C790.897 96.2325 791.152 92.5334 788.978 90.0374C787.124 88.4825 787.452 86.0356 786.599 84.1206C783.203 81.87 784.77 73.5554 779.692 75.0775C779.938 65.8463 773.302 73.4899 778.372 76.1987C778.183 169.894 784.343 271.111 777.133 362.122C765.099 362.122 753.074 362.089 741.057 362.057C739.949 362.049 739.006 361.091 738.965 360.003C738.842 243.09 738.563 126.136 739.072 9.23934C739.228 7.46347 741.368 7.07065 742.927 7.18522C756.593 7.18522 770.259 7.20159 783.917 7.17704C785.697 7.17704 786.73 7.91357 787.903 9.33754C798.075 25.4595 808.378 41.7452 817.36 58.6282C822.438 64.4059 825.358 72.6306 830.115 78.7602C832.273 80.5606 830.96 84.3497 834.053 85.4545C834.931 87.1076 835.464 89.1372 836.768 90.332C839.27 92.6071 839.057 96.5353 842.1 98.3766C842.469 98.6058 842.715 99.3505 842.699 99.8497C842.658 102.338 845.061 103.279 845.922 105.12C847.735 108.778 849.819 111.978 852.066 115.472C860.392 130.138 869.621 144.197 877.586 158.617C880.046 160.434 880.153 163.887 882.54 165.835C883.943 167.251 883.336 169.608 885.198 170.754C889.849 178.25 894.451 186.196 898.946 194.118C900.488 196 902.284 197.523 901.973 200.281C903.326 201.582 905.016 202.597 905.041 204.683C904.918 206.868 907.305 207.54 908.273 209.119C909.29 212.9 912.374 215.298 913.481 218.817C916.205 222.066 916.951 225.527 919.199 229.145C921.545 232.705 924.161 236.715 924.285 240.954C927.27 242.288 927.558 245.185 928.206 247.959C930.018 248.761 931.503 249.784 931.093 252.116C930.765 255.357 934.563 255.39 934.981 258.541C935.301 260.398 936.212 261.994 937.327 263.606C940.461 267.878 945.284 285.031 949.484 285.465C948.926 288.207 950.936 295.253 954.381 290.907C953.749 289.066 953.593 287.225 954.323 285.375C953.626 284.54 952.617 283.91 951.526 284.082C950.263 192.833 948.499 99.9725 950.895 8.44552C949.508 2.74963 981.319 7.55349 987.086 5.71215C992.401 5.93311 990.588 13.6749 990.958 17.3085V17.3085Z" fill="url(#paint4_linear_10_7837)" stroke="url(#paint5_linear_10_7837)"/>
<path d="M683.394 170.239C684.01 155.197 680.614 140.54 678.038 125.932C674.666 121.84 677.037 115.997 674.158 112.011C671.631 109.581 672.837 105.694 671.246 102.977C669.704 100.62 668.99 98.0663 668.334 95.4311C667.997 94.1053 667.563 92.8205 666.423 91.9203C664.044 89.8089 665.118 86.0771 662.403 84.1539C660.434 82.0098 661.534 77.9997 658.359 76.5512C657.793 75.0208 657.383 73.4168 656.628 71.9929C650.657 64.6684 646.243 55.7154 639.082 49.5612C634.407 42.4414 626.655 37.3184 620.38 32.0644C620.043 29.5274 617.295 30.1985 616.065 28.8482C614.375 26.9987 612.152 25.9593 609.995 24.8218C608.461 22.113 605.442 22.1212 603.039 21C601.119 17.9638 597.289 18.7658 595.057 16.1143C592.277 14.0274 587.946 15.6805 585.665 12.1615C579.045 10.4757 572.311 7.0958 565.273 6.89939C547.85 1.30172 528.516 3.83868 510.149 3.94506C498.764 6.31017 487.288 8.62616 476.641 13.3073C473.712 15.4105 469.447 14.1175 467.289 17.5874C465.706 17.972 464.09 18.2584 462.532 18.7576C460.752 19.3223 460.309 21.6874 458.061 21.9247C453.591 23.2587 449.916 27.5715 445.839 29.5765C443.124 29.8793 442.59 33.2265 439.949 33.4556C432.944 40.7064 424.479 46.4841 418.786 54.8725C416.128 55.4944 416.415 59.1444 413.741 59.75C410.673 63.1544 409.533 68.0892 405.956 70.8717C404.578 74.358 401.765 77.0913 400.805 80.7986C397.655 83.1637 397.671 87.5583 395.022 90.2426C393.447 95.382 390.83 100.219 389.436 105.284C387.262 107.371 387.049 110.023 386.622 112.691C378.288 136.563 374.761 161.67 375.442 187.146C375.237 202.687 375.786 218.236 379.092 233.196C379.125 238.254 380.929 242.657 382.685 247.297C383.439 251.552 383.571 255.972 386.294 259.671C387.049 262.764 386.721 266.226 389.354 268.771C390.617 270.661 390.117 274.524 391.831 276.325C393.102 277.585 393.586 278.992 393.947 280.596C394.079 283.461 396.531 285.097 397.557 287.7C398.361 289.378 398.787 291.113 400.337 292.536C401.625 293.715 402.035 295.843 402.839 297.553C405.481 298.871 404.619 302.742 407.49 303.896C411.182 310.582 416.251 315.746 421.083 321.196C429.006 329.404 437.168 336.991 446.766 343.57C452.007 345.723 456.519 350.199 462.277 351.819C464.796 353.137 466.264 355.232 469.414 355.175C474.057 356.443 473.253 358.677 479.897 358.751C482.694 359.087 484.392 361.935 487.337 361.705C495.827 362.295 503.546 366.313 512.233 365.814C531.854 366.493 551.82 366.444 570.572 360.617C573.853 357.671 578.709 359.308 582.031 357.114C584.246 354.692 587.781 355.445 590.16 353.882C591.604 351.869 593.827 351.713 595.87 351.017C598.585 349.913 600.406 347.057 603.572 346.967C605.196 346.754 605.295 344.953 606.533 344.413C610.774 342.793 614.892 340.428 617.73 336.966C630.953 328.34 641.084 316.269 650.246 303.323C653.019 298.609 657.137 294.975 658.334 289.607C661.607 286.587 663.24 281.914 664.675 277.757C666.062 273.976 668.481 270.694 669.367 266.668C681.401 236.29 684.731 203.211 683.394 170.239ZM636.179 188.194C634.604 197.319 635.309 206.656 634.398 215.871C633.677 221.583 630.773 226.6 631.24 232.509C625.662 253.492 617.156 274.598 603.712 291.636C601.94 292.152 602.071 294.37 600.75 295.294C597.157 297.218 596.214 301.981 592.088 303.323C590.415 303.871 590.644 306.089 588.889 306.776C585.025 309.338 581.605 313.02 576.978 314.78C575.723 315.017 575.699 317.112 574.132 317.366C570.514 317.186 568.702 320.754 565.429 321.188C560.63 321.417 557.226 325.509 552.37 325.402C544.175 325.943 536.842 329.707 528.319 328.422V328.471C522.618 328.782 517.704 328.529 512.553 326.163C508.607 325.28 504.194 325.975 500.634 323.807C496.746 320.918 491.644 321.941 488.346 318.209C486.476 317.309 484.105 317.824 482.67 315.525C481.562 313.757 478.724 314.076 477.362 312.071C476.148 310.271 473.31 310.59 472.072 308.511C470.964 306.67 468.528 306.154 467.56 303.977C466.928 302.562 464.402 303.167 463.811 301.26C463.311 299.648 460.899 299.722 460.702 297.758C460.538 296.113 458.307 296.137 457.971 295.082C457.241 292.79 455.034 291.964 453.894 290.18C452.171 287.495 449.694 285.335 448.759 282.061C448.382 280.727 446.003 280.384 445.978 278.379C445.954 276.873 444.69 276.079 443.805 275.081C440.121 267.363 435.708 259.875 433.551 251.552C431.664 249.662 431.41 247.256 431.205 244.793C431.024 242.632 430.754 240.529 429.105 238.777C427.538 236.052 427.981 232.321 427.35 229.252C422.247 211.329 422.173 192.138 423.281 173.52C422.904 156.007 427.751 139.116 431.648 122.462C437.086 110.244 440.499 96.9778 449.005 86.7481C474.04 42.9733 535.291 28.2753 577.848 55.1262C591.309 62.8598 601.759 74.0879 609.749 87.1082C610.282 88.6959 612.62 88.6059 612.866 90.6272C613.063 92.2313 613.809 93.7698 615.072 94.8992C616.951 98.7946 619.748 101.929 620.495 106.315C632.504 131.677 636.49 160.197 636.179 188.194Z" fill="url(#paint6_linear_10_7837)" stroke="url(#paint7_linear_10_7837)"/>
<path d="M1318.39 352.801C1318 352.081 1317.15 351.451 1317.11 350.747C1317 345.092 1313.34 340.616 1312.74 335.149C1310.08 327.866 1307.19 320.541 1305.29 312.955C1302.82 306.612 1301.35 300.18 1298.62 294.009C1298.03 290.564 1298.17 286.988 1295.52 284.099C1294.32 281.39 1294.23 277.609 1293.14 274.679C1288.96 271.496 1291.78 265.694 1288.99 261.872C1286.04 258.86 1287.83 254.376 1285.56 251.2C1282.9 248.573 1283.85 244.269 1282.31 241.323C1280.47 238.736 1279.87 235.88 1279.47 232.918C1277.39 227.566 1275.43 222.361 1274.11 216.853C1271.12 213.04 1273.16 207.614 1269.78 203.898C1266.87 193.079 1262.13 182.359 1259.82 171.515C1257.31 169.527 1257.68 166.72 1257.18 164.117C1256.97 160.369 1253.66 158.094 1253.76 154.354C1253.89 150.614 1251.74 147.758 1250.46 144.419C1249.58 140.736 1248.87 137.045 1246.85 133.682C1245.93 132.151 1245.86 130.007 1245.76 128.125C1245.63 125.744 1243.28 124.557 1242.99 122.323C1242.02 114 1238.1 106.463 1235.4 98.5163C1233.17 88.3521 1229.06 79.0471 1226.59 69.1857C1223.7 65.6831 1224.36 60.9365 1222.79 56.8528C1220.34 54.6269 1220.39 51.5252 1219.84 48.6036C1219.99 45.6493 1216.78 44.2417 1216.73 41.3774C1216.33 35.5506 1213.26 30.6567 1212.51 24.9935C1208.97 19.535 1210.25 9.14981 1203.18 7.20208C1187.07 7.25937 1170.91 6.91565 1154.84 7.33302C1148.4 7.69311 1145.55 31.7206 1142.42 37.8502C1138.83 48.62 1135.69 59.3734 1131.62 69.865C1131.68 74.3006 1129.92 77.4022 1128.12 81.1995C1127.45 83.3682 1127.92 86.347 1126.67 88.2457C1122.66 92.0757 1124.75 98.2871 1121.42 102.534C1119.61 109.065 1117.05 115.252 1115.57 121.807C1113.59 124.303 1113.54 127.388 1112.8 130.261C1111.91 134.557 1109.05 138.076 1108.79 142.578C1108.64 143.641 1108.38 144.844 1107.74 145.638C1104.8 148.936 1106.04 153.585 1104.15 157.136C1101.37 160.173 1102.36 164.526 1100.79 167.873C1098.33 170.82 1098.38 174.404 1097.81 177.866C1097.64 178.897 1097.35 180.084 1096.69 180.845C1093.72 183.995 1094.86 188.742 1092.72 192.187C1086.57 208.08 1083.53 225.364 1076.4 241.126C1075.62 246.266 1072.89 250.783 1072.2 255.873C1072.42 258.296 1070.49 259.67 1069.52 261.594C1069.03 266.537 1067.25 271.046 1065.29 275.522C1064.6 279.246 1064.31 283.076 1061.76 286.235C1056.11 307.701 1047.09 328.537 1041.98 350.338C1039.31 353.644 1036.97 361.517 1041.05 362.074C1054.17 362.115 1067.29 362.147 1080.4 362.164C1089.36 362.442 1088.41 345.223 1091.86 339.184C1093.95 333.594 1095.13 327.816 1097.63 322.342C1098.23 319.158 1098.15 315.803 1100.61 313.192C1101.45 307.022 1104.36 301.367 1105.73 295.302C1108.78 290.981 1108.2 285.294 1110.11 280.604C1111.89 277.437 1112.84 274.115 1113.09 270.53C1114.12 267.15 1116.67 264.417 1116.5 260.636C1116.76 257.862 1119.37 256.094 1119.71 253.271C1156.04 248.14 1196.81 252.796 1234.55 251.593C1241.41 252.714 1237.5 262.51 1242.18 266.537C1245.28 277.822 1248.53 289.5 1253.3 300.344C1258.61 320.066 1265.39 340.133 1272.15 359.578C1273.97 365.134 1290.39 360.822 1296.11 362.115V362.172C1303.73 361.943 1311.45 362.679 1319 361.804C1321.33 359.733 1319.48 355.306 1318.39 352.801V352.801ZM1223.32 216.485C1208.58 216.608 1193.85 216.501 1179.11 216.534C1163.51 214.897 1144.98 220.037 1130.65 214.079C1129.68 213.31 1129.53 212.557 1130.46 211.452C1132.3 208.457 1131.45 204.528 1133.72 201.566C1135.85 197.548 1134.8 192.269 1137.95 188.554C1140.83 181.017 1141.65 172.751 1145.18 165.557C1147.22 162.21 1146 157.48 1148.69 154.158C1150.26 149.108 1151.62 143.862 1153.87 138.928C1154.64 135.556 1154.13 131.8 1157.09 129.083C1158.26 125.67 1157.75 121.463 1160.22 118.272C1161.09 117.052 1161.17 115.195 1161.33 113.599C1161.49 109.098 1165.02 105.775 1165.06 101.241C1165.88 94.6863 1169.66 89.2195 1169.63 82.4107C1171.46 78.3597 1172.75 74.4151 1172.81 69.9386C1172.96 68.8666 1172.91 67.5654 1173.51 66.7961C1177.14 62.9252 1174.57 56.6646 1177.92 53.2438C1178.69 53.1292 1179.09 54.2422 1179.31 54.7905C1182.66 62.3278 1182.7 70.757 1185.94 78.0651C1187.47 80.512 1187.02 83.9738 1187.53 86.7726C1188.49 91.601 1191.43 95.5783 1191.23 100.701C1192.93 104.72 1194.98 108.369 1195.07 112.92C1198.19 120.072 1201.14 127.462 1202.24 134.991C1205.18 143.339 1208.28 151.547 1210.28 160.312C1213.81 164.755 1212.26 170.918 1215.95 175.124C1216.29 176.99 1216.64 178.856 1216.98 180.722C1217.32 182.571 1217.59 184.298 1219 185.886C1221.02 189.208 1220.11 194.021 1222.5 197.425C1224.67 201.484 1224.36 206.484 1227.23 210.29C1228.94 213.17 1226.83 216.428 1223.32 216.485Z" fill="url(#paint8_linear_10_7837)" stroke="url(#paint9_linear_10_7837)"/>
<path d="M1813.71 17.2391C1813.49 131.697 1814.15 246.179 1813.46 360.637C1813.39 362.241 1811.15 361.824 1810.06 362.135C1798.58 362.159 1787.1 362.176 1775.63 362.118C1773.82 361.906 1770.66 362.282 1769.86 360.359C1769.13 324.138 1769.8 287.875 1769.58 251.638C1771.8 172.378 1765.32 84.3049 1771.85 7.51682C1785.15 6.80484 1798.69 6.9767 1811.97 7.39407C1815.14 8.99808 1813.18 14.2684 1813.71 17.2391V17.2391Z" fill="url(#paint10_linear_10_7837)" stroke="url(#paint11_linear_10_7837)"/>
<path d="M1254.75 421.384L1254.75 421.384L1254.75 421.39C1254.37 421.877 1254.2 422.491 1254.1 423.063C1254.05 423.354 1254.01 423.651 1253.98 423.933L1253.97 424.012C1253.94 424.267 1253.91 424.508 1253.87 424.737C1252.32 433.195 1250.25 441.559 1248.12 449.933C1247.83 451.055 1247.54 452.178 1247.26 453.301C1245.41 460.508 1243.56 467.732 1242 475.023C1241.83 475.183 1241.52 475.362 1241.05 475.539C1240.51 475.741 1239.82 475.917 1239.02 476.063C1237.43 476.354 1235.45 476.513 1233.48 476.52C1231.51 476.528 1229.57 476.384 1228.05 476.08C1227.29 475.927 1226.65 475.738 1226.17 475.518C1225.72 475.31 1225.47 475.102 1225.36 474.927C1223.98 468.894 1222.36 462.903 1220.74 456.928C1220.13 454.685 1219.53 452.445 1218.93 450.206C1216.75 441.968 1214.75 433.728 1213.57 425.366L1213.57 425.307L1213.54 425.252C1213.22 424.424 1212.86 423.792 1212.46 423.378C1212.04 422.951 1211.53 422.727 1210.98 422.824C1210.46 422.914 1210 423.264 1209.61 423.712C1209.2 424.169 1208.81 424.786 1208.43 425.518C1206.91 428.434 1205.37 433.539 1203.94 439.091C1202.52 444.659 1201.2 450.734 1200.15 455.622L1200.11 455.777C1199.6 458.159 1199.14 460.249 1198.77 461.856C1198.58 462.677 1198.41 463.367 1198.27 463.903C1198.12 464.451 1198 464.804 1197.93 464.973L1197.92 464.988L1197.91 465.003C1197.53 466.003 1197.3 467.21 1197.11 468.418C1197.07 468.617 1197.04 468.815 1197.01 469.013C1196.85 470.043 1196.68 471.066 1196.44 472.021C1196.15 473.158 1195.75 474.138 1195.15 474.858C1194.57 475.55 1193.78 476.028 1192.63 476.154C1191.44 475.99 1190.11 476.054 1188.77 476.157C1188.43 476.182 1188.1 476.21 1187.77 476.238C1186.72 476.326 1185.68 476.413 1184.67 476.423C1182.02 476.451 1179.86 475.95 1178.72 473.771C1177.87 470.362 1176.98 466.959 1176.09 463.555C1173.52 453.648 1170.93 443.733 1169.12 433.653L1169.11 433.608L1169.1 433.565C1165.75 424.736 1163.81 415.483 1161.86 406.249C1161.54 404.697 1161.21 403.146 1160.88 401.597C1161.24 400.657 1161.96 400.095 1162.97 399.774C1164.04 399.432 1165.42 399.379 1166.93 399.463C1168.07 399.527 1169.25 399.664 1170.4 399.799C1170.79 399.844 1171.17 399.889 1171.54 399.93C1172.81 400.069 1174.03 400.175 1175.06 400.118C1175.37 404.639 1176.58 408.516 1177.85 412.57C1178.16 413.553 1178.47 414.547 1178.77 415.563C1179.09 416.757 1179.24 417.971 1179.4 419.224C1179.48 419.841 1179.56 420.467 1179.66 421.105C1179.95 422.982 1180.43 424.878 1181.67 426.592C1182.08 427.682 1182.25 429.226 1182.39 430.987C1182.42 431.378 1182.45 431.779 1182.47 432.185C1182.57 433.609 1182.68 435.1 1182.89 436.472C1183.16 438.228 1183.63 439.894 1184.58 441.04C1185.06 441.623 1185.67 442.071 1186.43 442.323C1187.19 442.575 1188.07 442.622 1189.08 442.451L1189.21 442.429L1189.31 442.344C1190.9 441.035 1191.26 438.967 1191.49 437.035C1191.52 436.785 1191.55 436.536 1191.57 436.29C1191.66 435.556 1191.74 434.843 1191.87 434.155C1192.04 433.244 1192.29 432.429 1192.71 431.752C1194.4 429.144 1194.77 426.183 1195.12 423.369C1195.14 423.226 1195.16 423.084 1195.18 422.941C1195.55 419.963 1195.98 417.167 1197.83 414.815C1198.37 414.161 1198.6 413.437 1198.73 412.736C1198.8 412.387 1198.84 412.035 1198.88 411.701L1198.88 411.681C1198.92 411.349 1198.96 411.035 1199.01 410.727L1199.02 410.69L1199.02 410.651C1199.11 406.943 1199.73 404.472 1200.73 402.83C1201.72 401.211 1203.1 400.351 1204.84 399.918C1206.6 399.477 1208.71 399.48 1211.12 399.601C1211.79 399.635 1212.49 399.678 1213.21 399.723C1214.95 399.831 1216.81 399.946 1218.73 399.952C1222.16 405.083 1223.53 412.636 1224.42 419.185L1224.43 419.257L1224.46 419.324C1226.38 423.571 1227.46 428.093 1228.45 432.712C1228.57 433.233 1228.68 433.756 1228.79 434.28C1229.67 438.381 1230.56 442.542 1232 446.571L1232.06 446.725L1232.19 446.817C1232.69 447.153 1233.17 447.351 1233.62 447.376C1234.09 447.402 1234.5 447.234 1234.81 446.939C1235.11 446.657 1235.33 446.271 1235.48 445.861C1235.64 445.447 1235.76 444.974 1235.85 444.482C1236 443.693 1236.09 442.81 1236.18 441.993C1236.2 441.797 1236.22 441.606 1236.24 441.421C1236.29 440.933 1236.35 440.486 1236.41 440.102C1236.48 439.712 1236.56 439.42 1236.65 439.229L1236.67 439.192L1236.68 439.153C1238.26 433.377 1239.8 427.675 1240.48 421.716C1241.59 420.018 1242.15 417.876 1242.53 415.642C1242.73 414.499 1242.87 413.316 1243.01 412.143C1243.02 412.035 1243.04 411.927 1243.05 411.82C1243.18 410.752 1243.3 409.696 1243.46 408.67C1243.81 406.403 1244.3 404.352 1245.25 402.764C1246.17 401.222 1247.52 400.104 1249.65 399.672C1250.69 399.798 1251.97 399.758 1253.25 399.718C1253.35 399.715 1253.45 399.712 1253.55 399.709C1254.98 399.665 1256.4 399.636 1257.59 399.819C1258.78 400.005 1259.59 400.386 1259.96 401.031C1260.33 401.664 1260.4 402.733 1259.66 404.568C1257.46 407.04 1257.22 410.151 1257.02 413.103L1257.01 413.211C1256.81 416.207 1256.61 419.046 1254.75 421.384Z" fill="url(#paint12_linear_10_7837)" stroke="url(#paint13_linear_10_7837)"/>
<path d="M1637.02 471.471L1637.04 471.516L1637.08 471.553C1638.04 472.489 1638.56 473.219 1638.78 473.775C1638.99 474.307 1638.92 474.627 1638.75 474.857C1638.55 475.128 1638.14 475.379 1637.47 475.577C1636.81 475.771 1635.98 475.893 1635.03 475.961C1633.14 476.097 1630.87 476.014 1628.81 475.923C1628.63 475.915 1628.46 475.907 1628.28 475.899C1626.49 475.819 1624.87 475.746 1623.92 475.851C1622.99 475.798 1622.03 475.242 1621.05 474.269C1620.05 473.29 1619.09 471.947 1618.16 470.466C1617.33 469.131 1616.54 467.706 1615.8 466.362C1615.72 466.218 1615.64 466.075 1615.56 465.933C1614.77 464.502 1614.02 463.173 1613.34 462.218C1613.16 461.804 1612.88 461.478 1612.59 461.202C1612.37 460.994 1612.12 460.795 1611.89 460.611C1611.81 460.548 1611.74 460.486 1611.66 460.427C1611.06 459.937 1610.6 459.467 1610.45 458.699L1610.45 458.678L1610.44 458.657C1610.02 457.142 1609.07 455.864 1608.16 454.678C1608.12 454.626 1608.08 454.573 1608.04 454.52C1607.15 453.366 1606.33 452.29 1605.9 451.069L1605.87 450.986L1605.81 450.917C1605.59 450.648 1605.36 450.371 1605.13 450.09C1603.87 448.542 1602.48 446.846 1600.9 445.49C1599.02 443.876 1596.82 442.69 1594.14 442.782L1594.12 442.783L1594.11 442.784C1593.63 442.829 1593.05 442.802 1592.41 442.767C1592.37 442.765 1592.33 442.763 1592.29 442.76C1591.69 442.727 1591.04 442.691 1590.41 442.718C1589.1 442.774 1587.69 443.118 1587.04 444.578L1587.01 444.659L1587 444.748C1586.61 450.956 1586.66 457.195 1586.71 463.409C1586.73 466.174 1586.75 468.934 1586.73 471.684L1586.73 471.729L1586.74 471.773C1587.04 473.484 1586.67 474.44 1586.05 475.009C1585.39 475.613 1584.31 475.898 1582.93 475.98C1581.62 476.058 1580.15 475.95 1578.68 475.843L1578.5 475.829C1577 475.72 1575.51 475.617 1574.33 475.766L1574.3 475.77L1574.27 475.777C1574.12 475.816 1573.99 475.789 1573.85 475.684C1573.69 475.562 1573.51 475.327 1573.33 474.933C1572.97 474.146 1572.69 472.908 1572.48 471.307C1572.07 468.122 1571.98 463.684 1572.03 459.015C1572.08 454.672 1572.25 450.151 1572.39 446.287C1572.4 446.003 1572.41 445.722 1572.43 445.444C1572.58 441.428 1572.69 438.184 1572.57 436.822L1572.53 436.366H1572.44C1572.55 435.574 1572.6 434.563 1572.62 433.403C1572.63 431.909 1572.58 430.13 1572.5 428.185C1572.45 426.835 1572.38 425.406 1572.31 423.932C1572.17 421.148 1572.03 418.207 1571.96 415.35C1571.86 410.978 1571.92 406.855 1572.42 403.858C1572.67 402.355 1573.03 401.184 1573.5 400.413C1573.95 399.662 1574.46 399.356 1575.06 399.384C1579.41 399.807 1583.94 399.724 1588.52 399.515C1590.06 399.444 1591.61 399.36 1593.15 399.275C1596.21 399.108 1599.26 398.941 1602.29 398.883C1611.39 398.708 1620.12 399.529 1627.52 404.247C1637.3 413.685 1635.62 431.425 1623.65 438.164C1621.93 438.468 1620.62 438.81 1619.64 439.198C1618.66 439.587 1617.96 440.045 1617.56 440.61C1617.14 441.21 1617.11 441.863 1617.32 442.502C1617.52 443.114 1617.95 443.728 1618.46 444.333C1618.98 444.943 1619.63 445.585 1620.31 446.247C1620.43 446.364 1620.55 446.483 1620.67 446.602C1621.24 447.158 1621.83 447.732 1622.41 448.331C1623.81 449.792 1625.04 451.34 1625.6 452.991L1625.62 453.059L1625.66 453.118C1627.69 456.027 1629.53 459.103 1631.37 462.213C1631.57 462.546 1631.76 462.878 1631.96 463.211C1633.6 465.989 1635.25 468.782 1637.02 471.471ZM1617.91 424.528L1617.95 424.468L1617.96 424.399C1618.89 421.151 1618.54 418.756 1617.25 417.039C1615.98 415.347 1613.86 414.428 1611.49 413.929C1609.1 413.428 1606.37 413.333 1603.78 413.356C1602.55 413.367 1601.35 413.404 1600.22 413.439C1600.15 413.441 1600.08 413.443 1600.01 413.446C1598.83 413.482 1597.74 413.514 1596.78 413.509C1593.79 413.197 1591.68 413.203 1590.21 413.576C1589.46 413.764 1588.86 414.052 1588.38 414.458C1587.91 414.867 1587.59 415.373 1587.38 415.957C1586.99 417.092 1587 418.561 1587.08 420.263C1587.09 420.598 1587.11 420.945 1587.13 421.303C1587.21 422.8 1587.3 424.504 1587.25 426.443L1587.25 426.543L1587.28 426.637C1587.76 427.874 1588.65 428.585 1589.75 428.955C1590.81 429.317 1592.07 429.356 1593.33 429.292C1594.1 429.252 1594.92 429.17 1595.71 429.091C1596.2 429.042 1596.68 428.994 1597.14 428.957C1598.19 428.872 1599.15 428.844 1599.94 428.964V429.119L1600.46 429.1C1601.73 429.052 1603.04 429.098 1604.39 429.144C1604.64 429.152 1604.88 429.161 1605.13 429.169C1606.72 429.22 1608.34 429.249 1609.89 429.092C1613.01 428.777 1615.92 427.704 1617.91 424.528Z" fill="url(#paint14_linear_10_7837)" stroke="url(#paint15_linear_10_7837)"/>
<path d="M1637.02 471.471L1637.04 471.516L1637.08 471.553C1638.04 472.489 1638.56 473.219 1638.78 473.775C1638.99 474.307 1638.92 474.627 1638.75 474.857C1638.55 475.128 1638.14 475.379 1637.47 475.577C1636.81 475.771 1635.98 475.893 1635.03 475.961C1633.14 476.097 1630.87 476.014 1628.81 475.923C1628.63 475.915 1628.46 475.907 1628.28 475.899C1626.49 475.819 1624.87 475.746 1623.92 475.851C1622.99 475.798 1622.03 475.242 1621.05 474.269C1620.05 473.29 1619.09 471.947 1618.16 470.466C1617.33 469.131 1616.54 467.706 1615.8 466.362C1615.72 466.218 1615.64 466.075 1615.56 465.933C1614.77 464.502 1614.02 463.173 1613.34 462.218C1613.16 461.804 1612.88 461.478 1612.59 461.202C1612.37 460.994 1612.12 460.795 1611.89 460.611C1611.81 460.548 1611.74 460.486 1611.66 460.427C1611.06 459.937 1610.6 459.467 1610.45 458.699L1610.45 458.678L1610.44 458.657C1610.02 457.142 1609.07 455.864 1608.16 454.678C1608.12 454.626 1608.08 454.573 1608.04 454.52C1607.15 453.366 1606.33 452.29 1605.9 451.069L1605.87 450.986L1605.81 450.917C1605.59 450.648 1605.36 450.371 1605.13 450.09C1603.87 448.542 1602.48 446.846 1600.9 445.49C1599.02 443.876 1596.82 442.69 1594.14 442.782L1594.12 442.783L1594.11 442.784C1593.63 442.829 1593.05 442.802 1592.41 442.767C1592.37 442.765 1592.33 442.763 1592.29 442.76C1591.69 442.727 1591.04 442.691 1590.41 442.718C1589.1 442.774 1587.69 443.118 1587.04 444.578L1587.01 444.659L1587 444.748C1586.61 450.956 1586.66 457.195 1586.71 463.409C1586.73 466.174 1586.75 468.934 1586.73 471.684L1586.73 471.729L1586.74 471.773C1587.04 473.484 1586.67 474.44 1586.05 475.009C1585.39 475.613 1584.31 475.898 1582.93 475.98C1581.62 476.058 1580.15 475.95 1578.68 475.843L1578.5 475.829C1577 475.72 1575.51 475.617 1574.33 475.766L1574.3 475.77L1574.27 475.777C1574.12 475.816 1573.99 475.789 1573.85 475.684C1573.69 475.562 1573.51 475.327 1573.33 474.933C1572.97 474.146 1572.69 472.908 1572.48 471.307C1572.07 468.122 1571.98 463.684 1572.03 459.015C1572.08 454.672 1572.25 450.151 1572.39 446.287C1572.4 446.003 1572.41 445.722 1572.43 445.444C1572.58 441.428 1572.69 438.184 1572.57 436.822L1572.53 436.366H1572.44C1572.55 435.574 1572.6 434.563 1572.62 433.403C1572.63 431.909 1572.58 430.13 1572.5 428.185C1572.45 426.835 1572.38 425.406 1572.31 423.932C1572.17 421.148 1572.03 418.207 1571.96 415.35C1571.86 410.978 1571.92 406.855 1572.42 403.858C1572.67 402.355 1573.03 401.184 1573.5 400.413C1573.95 399.662 1574.46 399.356 1575.06 399.384C1579.41 399.807 1583.94 399.724 1588.52 399.515C1590.06 399.444 1591.61 399.36 1593.15 399.275C1596.21 399.108 1599.26 398.941 1602.29 398.883C1611.39 398.708 1620.12 399.529 1627.52 404.247C1637.3 413.685 1635.62 431.425 1623.65 438.164C1621.93 438.468 1620.62 438.81 1619.64 439.198C1618.66 439.587 1617.96 440.045 1617.56 440.61C1617.14 441.21 1617.11 441.863 1617.32 442.502C1617.52 443.114 1617.95 443.728 1618.46 444.333C1618.98 444.943 1619.63 445.585 1620.31 446.247C1620.43 446.364 1620.55 446.483 1620.67 446.602C1621.24 447.158 1621.83 447.732 1622.41 448.331C1623.81 449.792 1625.04 451.34 1625.6 452.991L1625.62 453.059L1625.66 453.118C1627.69 456.027 1629.53 459.103 1631.37 462.213C1631.57 462.546 1631.76 462.878 1631.96 463.211C1633.6 465.989 1635.25 468.782 1637.02 471.471ZM1617.91 424.528L1617.95 424.468L1617.96 424.399C1618.89 421.151 1618.54 418.756 1617.25 417.039C1615.98 415.347 1613.86 414.428 1611.49 413.929C1609.1 413.428 1606.37 413.333 1603.78 413.356C1602.55 413.367 1601.35 413.404 1600.22 413.439C1600.15 413.441 1600.08 413.443 1600.01 413.446C1598.83 413.482 1597.74 413.514 1596.78 413.509C1593.79 413.197 1591.68 413.203 1590.21 413.576C1589.46 413.764 1588.86 414.052 1588.38 414.458C1587.91 414.867 1587.59 415.373 1587.38 415.957C1586.99 417.092 1587 418.561 1587.08 420.263C1587.09 420.598 1587.11 420.945 1587.13 421.303C1587.21 422.8 1587.3 424.504 1587.25 426.443L1587.25 426.543L1587.28 426.637C1587.76 427.874 1588.65 428.585 1589.75 428.955C1590.81 429.317 1592.07 429.356 1593.33 429.292C1594.1 429.252 1594.92 429.17 1595.71 429.091C1596.2 429.042 1596.68 428.994 1597.14 428.957C1598.19 428.872 1599.15 428.844 1599.94 428.964V429.119L1600.46 429.1C1601.73 429.052 1603.04 429.098 1604.39 429.144C1604.64 429.152 1604.88 429.161 1605.13 429.169C1606.72 429.22 1608.34 429.249 1609.89 429.092C1613.01 428.777 1615.92 427.704 1617.91 424.528Z" fill="url(#paint16_linear_10_7837)" stroke="url(#paint17_linear_10_7837)"/>
<path d="M479.946 456.615L479.946 456.615L479.945 456.627C479.354 463.893 475.159 469.118 469.408 472.358C463.645 475.604 456.337 476.841 449.623 476.098L449.068 476.036V476.22C440.603 476.935 432.183 473.948 426.143 468.444C424.61 467.02 423.058 464.598 421.76 461.973C420.469 459.361 419.457 456.605 418.978 454.541C418.78 453.311 419.088 452.618 419.595 452.184C420.149 451.71 421.035 451.458 422.159 451.351C423.263 451.247 424.5 451.289 425.7 451.331L425.722 451.331L425.729 451.332C426.891 451.372 428.044 451.412 428.92 451.283C430.509 451.273 431.562 451.629 432.365 452.184C433.189 452.753 433.794 453.56 434.446 454.539C434.561 454.712 434.677 454.889 434.795 455.069C436.009 456.926 437.465 459.152 440.758 460.725C442.603 461.664 445.28 462.257 448.164 462.448C451.058 462.64 454.209 462.43 457.015 461.727C459.81 461.027 462.326 459.821 463.875 457.971C465.454 456.086 465.974 453.598 464.887 450.503L464.869 450.451L464.84 450.405C463.214 447.778 460.569 446.789 457.889 446.091C457.302 445.938 456.727 445.802 456.158 445.667C455.389 445.485 454.629 445.306 453.86 445.089C452.551 444.72 451.322 444.269 450.244 443.592L450.192 443.559L450.133 443.54C449.182 443.23 448.202 443.094 447.245 443.007C446.841 442.97 446.453 442.943 446.072 442.916C445.519 442.877 444.981 442.839 444.43 442.776C442.621 442.567 440.996 442.106 439.668 440.57L439.668 440.57L439.66 440.561C439.335 440.203 438.857 439.976 438.399 439.84C437.932 439.701 437.425 439.639 436.985 439.653L436.983 439.653C435.465 439.708 434.272 439.108 433.089 438.294C432.734 438.05 432.401 437.802 432.061 437.549C431.816 437.367 431.566 437.181 431.301 436.991C430.706 436.564 430.076 436.152 429.386 435.834C422.17 430.275 420.313 422.417 422.349 415.429C424.39 408.425 430.351 402.274 438.829 400.207C440.789 400.173 442.87 399.997 444.979 399.819C445.061 399.812 445.144 399.805 445.227 399.799C447.448 399.611 449.7 399.427 451.914 399.399C456.349 399.343 460.546 399.918 463.914 402.286L463.925 402.293L463.935 402.3C464.422 402.606 464.962 402.802 465.493 402.956C465.76 403.033 466.031 403.102 466.295 403.168C466.324 403.175 466.353 403.182 466.382 403.19C466.619 403.249 466.85 403.306 467.078 403.369C468.108 403.652 468.971 404.012 469.551 404.84L469.601 404.912L469.674 404.963C473.926 407.937 475.603 412.47 477.375 417.262C477.564 417.772 477.754 418.284 477.948 418.798C477.229 420.509 475.391 421.02 472.992 421.061C471.894 421.08 470.74 421 469.611 420.921C469.492 420.913 469.372 420.904 469.253 420.896C468.064 420.814 466.898 420.745 465.93 420.833C463.533 420.302 462.332 419.554 461.57 418.785C461.179 418.39 460.889 417.973 460.605 417.534C460.551 417.451 460.498 417.367 460.443 417.282C460.214 416.922 459.97 416.54 459.682 416.18C458.934 415.245 457.883 414.444 455.817 413.944C453.784 413.451 450.753 413.244 446.018 413.472C442.076 413.129 438.94 415.416 437.916 418.166C437.399 419.553 437.417 421.073 438.17 422.412C438.921 423.747 440.364 424.83 442.56 425.435C445.564 426.391 448.686 427.214 451.772 428.027C453.373 428.449 454.963 428.868 456.523 429.302C461.115 430.58 465.465 431.992 469.157 433.993C472.843 435.99 475.85 438.563 477.783 442.152C479.715 445.741 480.599 450.399 479.946 456.615Z" fill="url(#paint18_linear_10_7837)" stroke="url(#paint19_linear_10_7837)"/>
<path d="M680.546 434.348L680.048 434.386C681.221 449.544 676.532 460.45 669.069 467.387C661.595 474.335 651.287 477.35 641.144 476.617C631.001 475.884 621.063 471.405 614.334 463.416C607.614 455.437 604.057 443.915 606.745 429.011L606.753 428.967V428.922C606.753 428.029 607.082 427.298 607.532 426.525C607.63 426.356 607.736 426.182 607.846 426.002C608.221 425.388 608.635 424.711 608.898 423.955L608.902 423.946L608.905 423.937C609.106 423.276 609.241 422.605 609.363 421.954C609.381 421.855 609.4 421.757 609.418 421.659C609.521 421.106 609.62 420.571 609.752 420.044C610.059 418.817 610.53 417.688 611.56 416.705L611.598 416.67L611.627 416.627C611.731 416.476 611.835 416.325 611.94 416.173C613.907 413.315 615.958 410.333 618.406 407.883C620.976 405.311 623.953 403.358 627.675 402.77L627.805 402.749L627.908 402.667C630.666 400.472 633.8 399.812 637.12 399.661C638.703 399.589 640.314 399.633 641.944 399.678C642.028 399.68 642.112 399.682 642.196 399.684C643.9 399.73 645.623 399.771 647.315 399.666C665.544 399.7 680.499 416.357 680.046 434.335L680.546 434.348ZM655.148 459.238C661.509 456.006 664.821 448.714 664.976 441.79C665.062 440.838 665.04 439.855 665.019 438.906C665.014 438.667 665.009 438.429 665.005 438.195H665.133L665.133 437.694C665.124 432.339 664.923 427.479 661.496 422.997C660.739 420.728 659.048 419.334 657.23 418.201C656.61 417.815 655.957 417.448 655.316 417.089C655.013 416.919 654.713 416.751 654.421 416.583C653.496 416.051 652.625 415.51 651.869 414.879L651.808 414.828L651.734 414.799C646.643 412.764 640.118 413.16 634.604 415.518C629.088 417.877 624.487 422.246 623.381 428.25L623.381 428.251C622.342 433.928 621.834 440.747 623.186 446.738C624.537 452.726 627.765 457.938 634.211 460.282C637.154 462.219 640.984 462.955 644.755 462.72C648.535 462.483 652.311 461.268 655.148 459.238Z" fill="url(#paint20_linear_10_7837)" stroke="url(#paint21_linear_10_7837)"/>
<path d="M1762.71 438.75C1762.67 438.335 1762.63 437.971 1762.55 437.684C1762.6 432.961 1762.57 428.244 1762.55 423.531C1762.51 416.02 1762.47 408.519 1762.71 401.016C1762.78 400.568 1762.98 400.282 1763.26 400.078C1763.57 399.855 1764 399.711 1764.53 399.621C1765.05 399.532 1765.63 399.502 1766.22 399.478C1766.26 399.476 1766.3 399.474 1766.34 399.472C1766.85 399.451 1767.37 399.43 1767.81 399.362C1774.13 399.485 1780.47 399.407 1786.81 399.329C1788.65 399.306 1790.49 399.284 1792.33 399.266C1800.45 399.188 1808.56 399.206 1816.6 399.741C1817.13 400.275 1817.63 401.289 1818 402.611C1818.39 404.007 1818.61 405.662 1818.59 407.247C1818.56 408.841 1818.29 410.318 1817.72 411.388C1817.17 412.438 1816.37 413.063 1815.25 413.1C1811.12 413.162 1806.97 413.146 1802.82 413.13C1794.97 413.1 1787.09 413.069 1779.25 413.568L1779.17 413.572L1779.1 413.6C1777.92 414.053 1777.24 414.898 1776.88 415.934C1776.53 416.943 1776.49 418.132 1776.55 419.321C1776.59 420.086 1776.68 420.892 1776.76 421.671C1776.8 422.094 1776.84 422.51 1776.88 422.907C1776.98 424.067 1777.01 425.09 1776.84 425.894L1776.81 426.033L1776.86 426.166C1777.22 427.193 1778.2 427.847 1779.42 428.274C1780.66 428.705 1782.26 428.945 1784.08 429.067C1787.73 429.311 1792.39 429.087 1797.01 428.862L1797.12 428.856C1801.73 428.632 1806.29 428.41 1809.87 428.63C1811.67 428.741 1813.2 428.963 1814.33 429.339C1815.4 429.692 1816.03 430.148 1816.3 430.68C1816.11 431.667 1816.17 432.839 1816.27 434.013C1816.31 434.413 1816.35 434.814 1816.39 435.212C1816.48 436.084 1816.57 436.947 1816.59 437.782C1816.63 438.997 1816.54 440.05 1816.17 440.847C1815.82 441.599 1815.22 442.158 1814.12 442.393C1808.18 442.778 1802.26 442.733 1796.31 442.688C1792.48 442.659 1788.64 442.63 1784.78 442.716C1781.94 442.261 1779.97 442.492 1778.64 443.332C1777.28 444.193 1776.72 445.613 1776.52 447.215C1776.33 448.804 1776.48 450.674 1776.63 452.552L1776.63 452.563L1776.63 452.567C1776.78 454.471 1776.93 456.4 1776.78 458.192L1776.78 458.232L1776.78 458.272C1776.86 459.313 1777.5 460.084 1778.44 460.637C1779.36 461.185 1780.63 461.556 1782.09 461.809C1785.01 462.316 1788.9 462.374 1792.94 462.273C1795.55 462.207 1798.25 462.073 1800.8 461.946C1802.2 461.877 1803.55 461.81 1804.83 461.757C1806.63 461.682 1808.28 461.636 1809.67 461.653C1811.08 461.669 1812.19 461.749 1812.94 461.914L1813.03 461.933L1813.12 461.921C1815.82 461.559 1817.51 461.728 1818.58 462.22C1819.6 462.691 1820.1 463.487 1820.33 464.609C1820.58 465.767 1820.52 467.212 1820.43 468.902C1820.42 469.012 1820.41 469.123 1820.41 469.234C1820.32 470.798 1820.22 472.528 1820.36 474.298C1820.27 474.841 1820.04 475.163 1819.72 475.376C1819.38 475.612 1818.89 475.744 1818.29 475.807C1817.7 475.867 1817.06 475.857 1816.41 475.846L1816.38 475.845C1815.75 475.835 1815.1 475.825 1814.55 475.902C1808.32 475.829 1802.1 475.878 1795.88 475.927C1785.48 476.009 1775.09 476.091 1764.7 475.6L1764.65 475.597L1764.6 475.606C1764.39 475.64 1764.21 475.595 1764.04 475.464C1763.85 475.321 1763.65 475.064 1763.46 474.659C1763.07 473.848 1762.77 472.592 1762.57 470.981C1762.16 467.774 1762.12 463.35 1762.22 458.742C1762.28 455.668 1762.41 452.531 1762.52 449.633C1762.58 448.19 1762.64 446.805 1762.68 445.518C1762.75 443.588 1762.79 441.875 1762.77 440.518C1762.77 439.839 1762.75 439.243 1762.71 438.75Z" fill="url(#paint22_linear_10_7837)" stroke="url(#paint23_linear_10_7837)"/>
<path d="M1442.99 466.323C1443.23 467.531 1443.61 468.771 1444.66 469.784C1446.11 472.084 1446.39 473.511 1446.13 474.38C1445.88 475.205 1445.07 475.734 1443.69 476.026C1442.33 476.314 1440.6 476.331 1438.81 476.282C1438.28 476.267 1437.75 476.247 1437.22 476.226C1436 476.18 1434.81 476.134 1433.8 476.165C1430.66 475.748 1429.23 473.297 1428.21 470.086C1427.88 469.067 1427.61 468.015 1427.33 466.951C1427.17 466.326 1427.01 465.697 1426.83 465.069C1426.37 463.412 1425.83 461.797 1425.02 460.492C1424.2 458.945 1422.32 458.178 1420.1 457.8C1417.85 457.414 1415.06 457.403 1412.21 457.517C1410.53 457.584 1408.8 457.696 1407.13 457.804C1405.96 457.88 1404.82 457.954 1403.74 458.01C1401.08 458.147 1398.81 458.172 1397.3 457.877L1397.25 457.867L1397.2 457.867C1394.48 457.876 1391.8 459.733 1391.14 462.207L1391.13 462.228L1391.13 462.251C1390.88 463.664 1390.02 467.453 1388.79 470.763C1388.18 472.423 1387.48 473.926 1386.74 474.949C1385.97 476.014 1385.31 476.35 1384.77 476.207L1384.69 476.186L1384.61 476.192C1381.39 476.419 1378.86 476.514 1376.96 476.349C1375.04 476.183 1373.91 475.758 1373.34 475.084C1372.8 474.439 1372.66 473.409 1373.14 471.671C1373.63 469.945 1374.7 467.661 1376.37 464.658L1376.39 464.623L1376.4 464.585C1378.76 458.027 1381.24 451.484 1383.71 444.949C1386.77 436.872 1389.83 428.806 1392.66 420.733C1393.41 418.827 1394.21 416.94 1395.01 415.054C1396.64 411.231 1398.27 407.411 1399.44 403.44L1399.44 403.418L1399.45 403.395C1399.72 402.002 1400.35 401.137 1401.2 400.583C1402.06 400.016 1403.19 399.744 1404.48 399.639C1405.77 399.534 1407.17 399.599 1408.56 399.663L1408.59 399.665C1409.94 399.728 1411.29 399.791 1412.45 399.675C1414.46 399.708 1416.09 400.228 1417.38 401.206C1418.68 402.189 1419.67 403.667 1420.34 405.682L1420.35 405.722L1420.37 405.759C1421.59 408.055 1422.42 410.498 1423.25 412.971C1423.32 413.187 1423.4 413.404 1423.47 413.621C1424.37 416.273 1425.32 418.942 1426.82 421.379C1427.83 426.027 1429.48 430.442 1431.21 434.792C1431.52 435.552 1431.82 436.31 1432.12 437.067C1433.58 440.678 1435.02 444.264 1436.15 447.957L1436.18 448.032L1436.22 448.096C1437.72 450.255 1438.38 452.68 1439.06 455.196C1439.08 455.267 1439.1 455.338 1439.12 455.41C1439.81 457.954 1440.55 460.581 1442.31 462.897C1442.48 463.403 1442.6 463.941 1442.69 464.507C1442.73 464.729 1442.77 464.963 1442.81 465.201C1442.86 465.575 1442.92 465.96 1442.99 466.323ZM1408.97 447.822V447.515C1409.14 447.517 1409.32 447.52 1409.49 447.522C1412.66 447.569 1415.9 447.616 1419.08 446.834C1419.36 446.779 1419.59 446.604 1419.75 446.427C1419.93 446.24 1420.07 446.007 1420.17 445.765C1420.37 445.307 1420.49 444.672 1420.24 444.152L1420.23 444.128L1420.22 444.105C1419.12 442.308 1418.48 440.32 1417.87 438.276C1417.81 438.089 1417.75 437.902 1417.7 437.715C1417.15 435.866 1416.58 433.978 1415.69 432.245L1415.69 432.238L1415.68 432.23C1415.35 431.637 1414.93 430.384 1414.4 428.781C1414.36 428.639 1414.31 428.496 1414.26 428.351C1413.78 426.873 1413.23 425.189 1412.62 423.612C1411.95 421.889 1411.19 420.247 1410.34 419.13C1409.91 418.571 1409.44 418.107 1408.9 417.843C1408.35 417.57 1407.74 417.522 1407.13 417.782L1406.89 417.882L1406.83 418.131C1405.95 422.007 1404.41 425.687 1402.85 429.395C1402.54 430.135 1402.23 430.877 1401.92 431.621C1400.09 436.071 1398.43 440.61 1398.18 445.501L1398.17 445.683L1398.28 445.829C1399.39 447.301 1401.35 447.508 1403.17 447.513C1403.64 447.515 1404.11 447.502 1404.58 447.488C1404.62 447.487 1404.66 447.486 1404.7 447.485C1405.13 447.472 1405.55 447.46 1405.96 447.458C1406.86 447.452 1407.67 447.493 1408.35 447.665L1408.97 447.822Z" fill="url(#paint24_linear_10_7837)" stroke="url(#paint25_linear_10_7837)"/>
<path d="M854.45 442.526C849.867 443.054 845.256 443.114 840.618 443.081C839.501 443.074 838.381 443.06 837.26 443.047C833.74 443.005 830.205 442.963 826.682 443.088C825.425 443.093 824.551 443.798 823.984 444.882C823.431 445.939 823.141 447.399 823.001 449.063C822.741 452.158 822.985 456.172 823.227 460.14C823.246 460.451 823.265 460.761 823.283 461.07C823.542 465.37 823.75 469.515 823.305 472.429C823.082 473.894 822.705 474.957 822.162 475.579C821.9 475.879 821.601 476.073 821.256 476.167C820.906 476.262 820.474 476.264 819.934 476.125L819.866 476.107L819.795 476.109C819.184 476.126 818.531 476.162 817.864 476.199L817.782 476.204C817.084 476.243 816.37 476.281 815.658 476.301C814.229 476.34 812.842 476.299 811.658 476.035C810.475 475.771 809.553 475.296 808.979 474.513C808.41 473.736 808.118 472.565 808.385 470.765L808.387 470.753L808.388 470.741C809.142 463.136 809.11 455.506 808.978 447.89C808.958 446.752 808.936 445.615 808.914 444.478C808.789 437.996 808.663 431.528 808.956 425.066L808.956 425.057L808.956 425.048C808.991 421.144 808.935 417.815 808.871 414.981C808.857 414.332 808.841 413.709 808.827 413.112C808.779 411.098 808.737 409.373 808.74 407.889C808.744 405.961 808.825 404.477 809.054 403.327C809.282 402.182 809.648 401.413 810.192 400.874C810.737 400.334 811.513 399.972 812.667 399.748C813.826 399.524 815.32 399.447 817.258 399.447C818.733 399.446 820.444 399.49 822.436 399.54C823.058 399.556 823.708 399.572 824.386 399.588C827.232 399.655 830.573 399.714 834.491 399.683C837.464 399.721 840.426 399.698 843.381 399.674C848.582 399.633 853.764 399.592 858.957 399.889C859.729 400.243 860.179 400.839 860.434 401.629C860.705 402.467 860.75 403.511 860.694 404.671C860.659 405.4 860.587 406.137 860.514 406.878C860.47 407.326 860.426 407.776 860.39 408.227C860.299 409.365 860.26 410.493 860.453 411.442C860.415 412.022 860.026 412.505 859.119 412.897C858.178 413.305 856.798 413.554 855.08 413.682C851.731 413.931 847.293 413.708 842.783 413.482L842.47 413.466C837.878 413.236 833.235 413.013 829.729 413.318C827.981 413.47 826.463 413.757 825.361 414.27C824.251 414.787 823.47 415.586 823.436 416.77C823.19 420.44 823.136 423.044 823.406 424.875C823.679 426.723 824.299 427.896 825.494 428.543C826.623 429.155 828.178 429.239 830.123 429.224C830.699 429.219 831.315 429.205 831.976 429.191C833.597 429.155 835.488 429.112 837.72 429.184M854.45 442.526L854.507 443.023L854.45 442.526C854.45 442.526 854.45 442.526 854.45 442.526ZM854.45 442.526C854.791 442.487 855.181 442.265 855.5 441.907C855.817 441.55 856.011 441.118 856.026 440.736L856.027 440.703L856.033 440.669C856.765 436.508 856.664 433.834 855.999 432.124C855.357 430.472 854.165 429.665 852.482 429.289C850.755 428.903 848.567 428.985 846.016 429.117C845.858 429.126 845.699 429.134 845.539 429.142C843.139 429.268 840.472 429.408 837.72 429.184M837.72 429.184C837.725 429.184 837.729 429.185 837.733 429.185L837.749 428.685L837.708 429.183C837.712 429.184 837.716 429.184 837.72 429.184Z" fill="url(#paint26_linear_10_7837)" stroke="url(#paint27_linear_10_7837)"/>
<path d="M1020.02 415.676L1020 415.752L1019.99 415.834C1019.72 425.188 1019.78 434.552 1019.84 443.904C1019.84 444.357 1019.85 444.809 1019.85 445.262C1019.91 455.02 1019.95 464.766 1019.6 474.494C1018.65 475.829 1016.82 476.066 1014.53 475.957C1013.86 475.926 1013.19 475.868 1012.52 475.81C1012.02 475.767 1011.52 475.724 1011.01 475.69C1009.9 475.618 1008.79 475.598 1007.83 475.78C1007.38 475.639 1006.98 475.266 1006.63 474.597C1006.26 473.878 1005.98 472.875 1005.79 471.639C1005.41 469.171 1005.4 465.912 1005.52 462.468C1005.58 460.426 1005.7 458.345 1005.81 456.336C1005.88 454.951 1005.96 453.601 1006.01 452.321C1006.15 449.229 1006.18 446.534 1005.84 444.95L1005.75 444.556H1005.65C1005.42 443.074 1005.45 440.692 1005.57 437.833C1005.63 436.6 1005.7 435.282 1005.78 433.925C1005.89 431.881 1006.01 429.747 1006.08 427.68C1006.19 424.235 1006.17 420.903 1005.77 418.349C1005.56 417.074 1005.26 415.956 1004.8 415.106C1004.34 414.255 1003.7 413.619 1002.81 413.43C1000.97 412.964 998.62 413.03 996.23 413.179C995.699 413.212 995.165 413.249 994.632 413.287C992.729 413.419 990.836 413.551 989.112 413.491C986.892 413.413 985.096 413.015 983.975 412.009C982.895 411.04 982.323 409.386 982.842 406.467L982.846 406.443L982.848 406.418C982.918 405.516 982.964 404.738 983.004 404.057C983.05 403.265 983.089 402.604 983.149 402.033C983.26 400.971 983.433 400.419 983.737 400.087C984.029 399.767 984.533 399.556 985.593 399.451C986.595 399.351 987.975 399.354 989.924 399.358C990.021 399.358 990.12 399.358 990.22 399.359C996.985 399.478 1003.74 399.416 1010.48 399.355C1020.91 399.261 1031.32 399.166 1041.72 399.739C1042 399.846 1042.25 400.117 1042.43 400.53C1042.62 400.962 1042.69 401.473 1042.64 401.887L1042.64 401.911L1042.64 401.936C1042.61 404.079 1042.64 405.869 1042.67 407.318C1042.69 408.135 1042.7 408.843 1042.7 409.444C1042.7 410.3 1042.66 410.951 1042.57 411.455C1042.48 411.955 1042.33 412.27 1042.14 412.486C1041.94 412.699 1041.66 412.865 1041.19 412.984C1040.72 413.105 1040.09 413.168 1039.25 413.197C1038.39 413.225 1037.35 413.217 1036.09 413.207C1034.86 413.196 1033.4 413.185 1031.67 413.204L1031.67 413.704L1031.56 413.216C1030.81 413.385 1029.85 413.374 1028.76 413.304C1028.41 413.282 1028.04 413.254 1027.67 413.225C1026.92 413.165 1026.13 413.104 1025.38 413.088C1024.27 413.065 1023.15 413.139 1022.2 413.5C1021.23 413.871 1020.44 414.545 1020.02 415.676Z" fill="url(#paint28_linear_10_7837)" stroke="url(#paint29_linear_10_7837)"/>
<defs>
<linearGradient id="paint0_linear_10_7837" x1="10.3547" y1="491.422" x2="401.371" y2="467.094" gradientUnits="userSpaceOnUse">
<stop stop-color="#F5593D"/>
<stop offset="1" stop-color="#F4816C"/>
</linearGradient>
<linearGradient id="paint1_linear_10_7837" x1="10.3547" y1="491.422" x2="401.371" y2="467.094" gradientUnits="userSpaceOnUse">
<stop stop-color="#F5593D"/>
<stop offset="1" stop-color="#F4816C"/>
</linearGradient>
<linearGradient id="paint2_linear_10_7837" x1="1369.39" y1="362.229" x2="1731.78" y2="333.317" gradientUnits="userSpaceOnUse">
<stop stop-color="#F5593D"/>
<stop offset="1" stop-color="#F4816C"/>
</linearGradient>
<linearGradient id="paint3_linear_10_7837" x1="1369.39" y1="362.229" x2="1731.78" y2="333.317" gradientUnits="userSpaceOnUse">
<stop stop-color="#F5593D"/>
<stop offset="1" stop-color="#F4816C"/>
</linearGradient>
<linearGradient id="paint4_linear_10_7837" x1="744.867" y1="362.175" x2="1010.95" y2="346.68" gradientUnits="userSpaceOnUse">
<stop stop-color="#F5593D"/>
<stop offset="1" stop-color="#F4816C"/>
</linearGradient>
<linearGradient id="paint5_linear_10_7837" x1="744.867" y1="362.175" x2="1010.95" y2="346.68" gradientUnits="userSpaceOnUse">
<stop stop-color="#F5593D"/>
<stop offset="1" stop-color="#F4816C"/>
</linearGradient>
<linearGradient id="paint6_linear_10_7837" x1="382.8" y1="366.108" x2="707.46" y2="343.4" gradientUnits="userSpaceOnUse">
<stop stop-color="#F5593D"/>
<stop offset="1" stop-color="#F4816C"/>
</linearGradient>
<linearGradient id="paint7_linear_10_7837" x1="382.8" y1="366.108" x2="707.46" y2="343.4" gradientUnits="userSpaceOnUse">
<stop stop-color="#F5593D"/>
<stop offset="1" stop-color="#F4816C"/>
</linearGradient>
<linearGradient id="paint8_linear_10_7837" x1="1045.63" y1="362.503" x2="1342.02" y2="343.194" gradientUnits="userSpaceOnUse">
<stop stop-color="#F5593D"/>
<stop offset="1" stop-color="#F4816C"/>
</linearGradient>
<linearGradient id="paint9_linear_10_7837" x1="1045.63" y1="362.503" x2="1342.02" y2="343.194" gradientUnits="userSpaceOnUse">
<stop stop-color="#F5593D"/>
<stop offset="1" stop-color="#F4816C"/>
</linearGradient>
<linearGradient id="paint10_linear_10_7837" x1="1769.93" y1="362.157" x2="1817.53" y2="361.661" gradientUnits="userSpaceOnUse">
<stop stop-color="#F5593D"/>
<stop offset="1" stop-color="#F4816C"/>
</linearGradient>
<linearGradient id="paint11_linear_10_7837" x1="1769.93" y1="362.157" x2="1817.53" y2="361.661" gradientUnits="userSpaceOnUse">
<stop stop-color="#F5593D"/>
<stop offset="1" stop-color="#F4816C"/>
</linearGradient>
<linearGradient id="paint12_linear_10_7837" x1="1162.78" y1="477.021" x2="1267.82" y2="465.909" gradientUnits="userSpaceOnUse">
<stop stop-color="#F5593D"/>
<stop offset="1" stop-color="#F4816C"/>
</linearGradient>
<linearGradient id="paint13_linear_10_7837" x1="1162.78" y1="477.021" x2="1267.82" y2="465.909" gradientUnits="userSpaceOnUse">
<stop stop-color="#F5593D"/>
<stop offset="1" stop-color="#F4816C"/>
</linearGradient>
<linearGradient id="paint14_linear_10_7837" x1="1573.06" y1="476.533" x2="1644.64" y2="471.408" gradientUnits="userSpaceOnUse">
<stop stop-color="#F5593D"/>
<stop offset="1" stop-color="#F4816C"/>
</linearGradient>
<linearGradient id="paint15_linear_10_7837" x1="1573.06" y1="476.533" x2="1644.64" y2="471.408" gradientUnits="userSpaceOnUse">
<stop stop-color="#F5593D"/>
<stop offset="1" stop-color="#F4816C"/>
</linearGradient>
<linearGradient id="paint16_linear_10_7837" x1="1573.06" y1="476.533" x2="1644.64" y2="471.408" gradientUnits="userSpaceOnUse">
<stop stop-color="#F5593D"/>
<stop offset="1" stop-color="#F4816C"/>
</linearGradient>
<linearGradient id="paint17_linear_10_7837" x1="1573.06" y1="476.533" x2="1644.64" y2="471.408" gradientUnits="userSpaceOnUse">
<stop stop-color="#F5593D"/>
<stop offset="1" stop-color="#F4816C"/>
</linearGradient>
<linearGradient id="paint18_linear_10_7837" x1="419.92" y1="476.825" x2="485.499" y2="472.514" gradientUnits="userSpaceOnUse">
<stop stop-color="#F5593D"/>
<stop offset="1" stop-color="#F4816C"/>
</linearGradient>
<linearGradient id="paint19_linear_10_7837" x1="419.92" y1="476.825" x2="485.499" y2="472.514" gradientUnits="userSpaceOnUse">
<stop stop-color="#F5593D"/>
<stop offset="1" stop-color="#F4816C"/>
</linearGradient>
<linearGradient id="paint20_linear_10_7837" x1="607.163" y1="477.225" x2="686.431" y2="470.927" gradientUnits="userSpaceOnUse">
<stop stop-color="#F5593D"/>
<stop offset="1" stop-color="#F4816C"/>
</linearGradient>
<linearGradient id="paint21_linear_10_7837" x1="607.163" y1="477.225" x2="686.431" y2="470.927" gradientUnits="userSpaceOnUse">
<stop stop-color="#F5593D"/>
<stop offset="1" stop-color="#F4816C"/>
</linearGradient>
<linearGradient id="paint22_linear_10_7837" x1="1763.1" y1="476.489" x2="1825.64" y2="472.561" gradientUnits="userSpaceOnUse">
<stop stop-color="#F5593D"/>
<stop offset="1" stop-color="#F4816C"/>
</linearGradient>
<linearGradient id="paint23_linear_10_7837" x1="1763.1" y1="476.489" x2="1825.64" y2="472.561" gradientUnits="userSpaceOnUse">
<stop stop-color="#F5593D"/>
<stop offset="1" stop-color="#F4816C"/>
</linearGradient>
<linearGradient id="paint24_linear_10_7837" x1="1374.14" y1="476.932" x2="1452.35" y2="470.783" gradientUnits="userSpaceOnUse">
<stop stop-color="#F5593D"/>
<stop offset="1" stop-color="#F4816C"/>
</linearGradient>
<linearGradient id="paint25_linear_10_7837" x1="1374.14" y1="476.932" x2="1452.35" y2="470.783" gradientUnits="userSpaceOnUse">
<stop stop-color="#F5593D"/>
<stop offset="1" stop-color="#F4816C"/>
</linearGradient>
<linearGradient id="paint26_linear_10_7837" x1="809.075" y1="476.814" x2="865.434" y2="473.631" gradientUnits="userSpaceOnUse">
<stop stop-color="#F5593D"/>
<stop offset="1" stop-color="#F4816C"/>
</linearGradient>
<linearGradient id="paint27_linear_10_7837" x1="809.075" y1="476.814" x2="865.434" y2="473.631" gradientUnits="userSpaceOnUse">
<stop stop-color="#F5593D"/>
<stop offset="1" stop-color="#F4816C"/>
</linearGradient>
<linearGradient id="paint28_linear_10_7837" x1="983.622" y1="476.481" x2="1047.96" y2="472.32" gradientUnits="userSpaceOnUse">
<stop stop-color="#F5593D"/>
<stop offset="1" stop-color="#F4816C"/>
</linearGradient>
<linearGradient id="paint29_linear_10_7837" x1="983.622" y1="476.481" x2="1047.96" y2="472.32" gradientUnits="userSpaceOnUse">
<stop stop-color="#F5593D"/>
<stop offset="1" stop-color="#F4816C"/>
</linearGradient>
</defs>
</svg>
